<svg width="250" height="99" viewBox="0 0 250 99" fill="none" xmlns="http://www.w3.org/2000/svg">
    <g>
        <path d="M239.313 40.8486C239.313 40.8456 239.313 40.8427 239.313 40.8397V17.5572H250V40.8397C250 40.8437 250 40.8477 250 40.8516V74.0458C250 87.3259 239.234 98.0916 225.954 98.0916C212.674 98.0916 201.908 87.3259 201.908 74.0458H212.595C212.595 81.4236 218.576 87.4046 225.954 87.4046C233.332 87.4046 239.313 81.4236 239.313 74.0458V60.8363C235.492 63.3939 230.897 64.8855 225.954 64.8855C212.674 64.8855 201.908 54.1198 201.908 40.8397V17.5572H212.595V40.8397C212.595 48.2175 218.576 54.1985 225.954 54.1985C233.329 54.1985 239.308 48.2224 239.313 40.8486Z"
              fill="white"/>
        <path fill-rule="evenodd" clip-rule="evenodd" d="M185.878 64.1221V4.67145e-07L196.565 0V64.1221H185.878Z"
              fill="white"/>
        <path d="M167.176 40.8342C167.179 33.4589 173.158 27.4809 180.534 27.4809V16.7939C175.591 16.7939 170.996 18.2855 167.176 20.8431V17.5573H156.489V64.1221H167.176V40.8342Z"
              fill="white"/>
        <path fill-rule="evenodd" clip-rule="evenodd"
              d="M140.076 20.8431C136.255 18.2855 131.661 16.7939 126.718 16.7939C113.437 16.7939 102.672 27.5596 102.672 40.8397C102.672 54.1198 113.437 64.8855 126.718 64.8855C131.661 64.8855 136.255 63.3939 140.076 60.8363V64.1221H150.763L150.763 17.5573H140.076V20.8431ZM113.359 40.8397C113.359 33.4618 119.34 27.4809 126.718 27.4809C134.095 27.4809 140.076 33.4618 140.076 40.8397C140.076 48.2175 134.095 54.1985 126.718 54.1985C119.34 54.1985 113.359 48.2175 113.359 40.8397Z"
              fill="white"/>
        <path fill-rule="evenodd" clip-rule="evenodd"
              d="M98.9354 44.6565C99.1336 43.4134 99.2366 42.1386 99.2366 40.8397C99.2366 27.5596 88.471 16.7939 75.1908 16.7939C61.9107 16.7939 51.145 27.5596 51.145 40.8397C51.145 54.1198 61.9107 64.8855 75.1908 64.8855C83.5866 64.8855 90.9774 60.5826 95.2783 54.0617L85.152 49.7412C82.7058 52.4767 79.1494 54.1985 75.1908 54.1985C69.1393 54.1985 64.0275 50.1746 62.3853 44.6565H98.9354ZM62.9436 35.4962H87.438C85.3766 30.7781 80.6688 27.4809 75.1908 27.4809C69.7129 27.4809 65.005 30.7781 62.9436 35.4962Z"
              fill="white"/>
        <path d="M10.687 40.8353C10.6894 33.4595 16.6694 27.4809 24.0458 27.4809C31.4236 27.4809 37.4046 33.4618 37.4046 40.8397V64.1221H48.0916V40.8397C48.0916 27.5596 37.3259 16.7939 24.0458 16.7939C19.1027 16.7939 14.5079 18.2855 10.687 20.8431V17.5573H0L7.27996e-07 64.1221H10.687V40.8353Z"
              fill="white"/>
    </g>
</svg>
