<svg width="24" height="24" viewBox="0 0 24 24" fill="none" xmlns="http://www.w3.org/2000/svg">
<path fill-rule="evenodd" clip-rule="evenodd" d="M17.19 8H20V10H17.91C17.96 10.33 18 10.66 18 11V12H20V14H18V15C18 15.34 17.96 15.67 17.91 16H20V18H17.19C16.15 19.79 14.22 21 12 21C9.78 21 7.85 19.79 6.81 18H4V16H6.09C6.04 15.67 6 15.34 6 15V14H4V12H6V11C6 10.66 6.04 10.33 6.09 10H4V8H6.81C7.26 7.22 7.88 6.55 8.62 6.04L7 4.41L8.41 3L10.59 5.17C11.04 5.06 11.51 5 12 5C12.49 5 12.96 5.06 13.42 5.17L15.59 3L17 4.41L15.37 6.04C16.12 6.55 16.74 7.22 17.19 8ZM16 15V12V11C16 10.78 15.97 10.53 15.93 10.31L15.83 9.66L15.45 9.01C15.15 8.48 14.74 8.04 14.24 7.7L13.63 7.28L12.95 7.12C12.63 7.04 12.32 7 12 7C11.69 7 11.37 7.04 11.06 7.12L10.32 7.3L9.75 7.69C9.26 8.03 8.84 8.48 8.54 9L8.17 9.65L8.07 10.3C8.03 10.52 8 10.77 8 11V15C8 15.23 8.03 15.48 8.07 15.71L8.17 16.36L8.54 17C9.26 18.23 10.58 19 12 19C13.42 19 14.74 18.24 15.46 17L15.83 16.35L15.93 15.7C15.97 15.47 16 15.22 16 15ZM10 14H14V16H10V14ZM14 10H10V12H14V10Z" fill="#E44021"/>
</svg>
