<svg width="24" height="24" viewBox="0 0 24 24" fill="none" xmlns="http://www.w3.org/2000/svg">
<g id="eye-closed">
<path id="icon/action/visibility_off_24px" fill-rule="evenodd" clip-rule="evenodd" d="M4.69 6.52499L2.01 3.84499L3.42 2.42499L21.15 20.165L19.74 21.575L16.32 18.155C14.98 18.685 13.52 18.975 12 18.975C7 18.975 2.73 15.865 1 11.475C1.77 9.50499 3.06 7.80499 4.69 6.52499ZM12 5.97499C15.79 5.97499 19.17 8.10499 20.82 11.475C20.23 12.695 19.4 13.745 18.41 14.595L19.82 16.005C21.21 14.775 22.31 13.235 23 11.475C21.27 7.08499 17 3.97499 12 3.97499C10.73 3.97499 9.51 4.17499 8.36 4.54499L10.01 6.19499C10.66 6.06499 11.32 5.97499 12 5.97499ZM10.93 7.11499L13 9.18499C13.57 9.43499 14.03 9.89499 14.28 10.465L16.35 12.535C16.43 12.195 16.49 11.835 16.49 11.465C16.5 8.98499 14.48 6.97499 12 6.97499C11.63 6.97499 11.28 7.02499 10.93 7.11499ZM9.51 11.345L12.12 13.955C12.08 13.965 12.04 13.975 12 13.975C10.62 13.975 9.5 12.855 9.5 11.475C9.5 11.45 9.5025 11.43 9.505 11.41C9.5075 11.39 9.51 11.37 9.51 11.345ZM7.86 9.69499L6.11 7.94499C4.9 8.86499 3.88 10.045 3.18 11.475C4.83 14.845 8.21 16.975 12 16.975C12.95 16.975 13.87 16.835 14.75 16.595L13.77 15.615C13.23 15.845 12.63 15.975 12 15.975C9.52 15.975 7.5 13.955 7.5 11.475C7.5 10.845 7.63 10.245 7.86 9.69499Z" fill="#E44021"/>
</g>
</svg>
