<svg xmlns="http://www.w3.org/2000/svg" viewBox="0 0 51.73 65.78">
    <title>Element 3</title>
    <g id="Ebene_2" data-name="Ebene 2">
        <g id="Ebene_1-2" data-name="Ebene 1">
            <path d="M0,56.74V27.66c0-6,3.06-9,9.15-9h8.13v4.7H9.21c-2.91,0-4.52,1.57-4.52,4.6V56.48c0,3,1.61,4.61,4.52,4.61H42.49c2.89,0,4.55-1.58,4.55-4.61V27.92c0-3-1.66-4.6-4.55-4.6h-8v-4.7h8.13c6.09,0,9.15,3,9.15,9V56.74c0,6-3.06,9-9.15,9H9.15C3.06,65.78,0,62.75,0,56.74ZM23.55,40.69V10.75l.17-4.37L21.77,8.45l-4.43,4.72a2.18,2.18,0,0,1-1.6.7,2,2,0,0,1-2.1-2.07,2,2,0,0,1,.7-1.51L24.19.79a2.17,2.17,0,0,1,3.35,0l9.85,9.5A2,2,0,0,1,36,13.87a2.12,2.12,0,0,1-1.57-.7L30,8.45,28,6.38l.17,4.37V40.69A2.32,2.32,0,0,1,25.88,43,2.35,2.35,0,0,1,23.55,40.69Z"/>
        </g>
    </g>
</svg>