<svg xmlns="http://www.w3.org/2000/svg" viewBox="0 0 53.65 53.65"><title>Element 2</title><g id="Ebene_2" data-name="Ebene 2"><g id="Ebene_1-2" data-name="Ebene 1"><path d="M0,44.62V9Q0,0,9.15,0H44.5c6.12,0,9.15,3,9.15,9V44.62c0,6-3,9-9.15,9H9.15Q0,53.65,0,44.62ZM44.45,49C47.33,49,49,47.42,49,44.39V9.27c0-3-1.63-4.58-4.51-4.58H9.21c-2.91,0-4.52,1.55-4.52,4.58V44.39c0,3,1.61,4.57,4.52,4.57ZM24.39,37.83v-8.6H15.3c-1.63,0-2.8-.87-2.8-2.42s1.08-2.47,2.8-2.47h9.09V15.18c0-1.63.85-2.76,2.39-2.76s2.48,1.07,2.48,2.76v9.16h9.15c1.69,0,2.74.9,2.74,2.47S40,29.23,38.41,29.23H29.26v8.6c0,1.69-.9,2.77-2.48,2.77S24.39,39.46,24.39,37.83Z"/></g></g></svg>