<svg width="24" height="24" viewBox="0 0 24 24" fill="none" xmlns="http://www.w3.org/2000/svg">
    <path d="M8.67215 10.1217C8.92351 9.87036 9.20236 9.66309 9.49896 9.49933C11.152 8.58834 13.2717 9.07275 14.3344 10.684L13.0484 11.9695C12.6797 11.1283 11.7641 10.6496 10.8531 10.8535C10.5101 10.9302 10.1843 11.1014 9.91809 11.3677L7.45369 13.8332C6.70532 14.5816 6.70532 15.7989 7.45369 16.5473C8.20205 17.2956 9.41937 17.2956 10.1677 16.5473L10.9276 15.7874C11.6187 16.0617 12.3596 16.1711 13.0914 16.1167L11.4143 17.7938C9.97649 19.2315 7.6455 19.2315 6.20774 17.7938C4.76999 16.356 4.76999 14.025 6.20774 12.5873L8.67215 10.1217ZM12.5863 6.20754L10.9092 7.88464C11.6404 7.82967 12.3819 7.93961 13.073 8.2133L13.8323 7.45406C14.5806 6.70569 15.798 6.70569 16.5463 7.45406C17.2947 8.20242 17.2947 9.41974 16.5463 10.1681L14.0813 12.6331C13.3307 13.3837 12.1117 13.3774 11.3673 12.6331C11.1938 12.4596 11.0444 12.2437 10.951 12.0313L9.66501 13.3167C9.80014 13.5217 9.94042 13.6987 10.1208 13.879C10.5857 14.344 11.1778 14.6904 11.8591 14.8547C12.7421 15.0671 13.688 14.9498 14.5005 14.5014C14.7971 14.3377 15.0759 14.1304 15.3273 13.879L17.7917 11.414C19.23 9.97629 19.23 7.6453 17.7923 6.20754C16.3545 4.77035 14.0241 4.77035 12.5863 6.20754Z"
          fill="black"/>
</svg>
