<svg width="24" height="24" viewBox="0 0 24 24" fill="none" xmlns="http://www.w3.org/2000/svg">
    <path d="M19.053 8.63936C19.2685 13.3957 15.7212 18.6983 9.44144 18.6983C7.53184 18.6983 5.75528 18.1379 4.25891 17.1784C6.05314 17.3903 7.84383 16.8911 9.26485 15.7786C7.78614 15.7515 6.53701 14.7732 6.10494 13.4298C6.63591 13.5311 7.15863 13.5017 7.63309 13.3722C6.00722 13.0449 4.88406 11.5803 4.92056 10.0133C5.37736 10.2664 5.89773 10.4183 6.45225 10.4359C4.94646 9.42934 4.52027 7.44086 5.40561 5.92094C7.07269 7.96711 9.56506 9.31278 12.3753 9.45406C11.882 7.33961 13.4867 5.30168 15.6706 5.30168C16.6419 5.30168 17.5213 5.71256 18.1383 6.3695C18.9082 6.2188 19.6334 5.93625 20.2857 5.54891C20.0326 6.33889 19.4969 7.00054 18.7987 7.41966C19.4827 7.33725 20.135 7.15595 20.7401 6.88634C20.288 7.56683 19.7159 8.16255 19.053 8.63936Z"
          fill="black"/>
</svg>
